<svg xmlns="http://www.w3.org/2000/svg" viewBox="0 0 771.29 771.29"><g><path d="M0 751.113L751.12-.007l20.177 20.176-751.12 751.12z" class="slash"></path><path d="M682.854 437.714a316.1 316.1 0 006.485-62.256c0-173.799-141.373-313.875-313.874-313.875A313.3 313.3 0 0061.59 375.458c0 22.049 2.594 42.8 6.485 63.553-6.485 7.782-9.079 18.158-9.079 28.534 0 68.738 24.643 134.888 64.85 191.956 11.673 16.861 36.316 24.643 57.068 16.861 9.079-5.188 32.425-12.97 50.583-20.752 12.97-5.188 24.643-10.376 27.237-11.673 1.3-1.3 3.891-3.891 3.891-6.485 3.891-7.782 1.3-18.158-3.891-29.831-37.613-63.553-58.365-128.4-70.038-193.253-3.891-16.861-11.673-24.643-24.643-24.643l-68.741 28.534a242.559 242.559 0 01-3.891-44.1c0-67.444 23.346-129.7 63.553-177.689 51.88-64.85 131-106.354 220.49-106.354 80.414 0 153.046 33.722 204.926 88.2 49.286 50.583 79.117 120.621 79.117 195.847a238.8 238.8 0 01-3.891 42.8l-68.74-28.535c-11.673 0-20.752 7.782-24.643 24.643-11.673 64.85-32.425 129.7-68.741 191.956-6.485 11.673-7.782 22.049-5.188 29.831 1.3 2.594 2.594 5.188 5.188 6.485 1.3 1.3 12.97 6.485 25.94 11.673 18.158 7.782 41.5 16.861 51.88 20.752 20.752 7.782 45.4 0 57.068-16.861 40.207-57.068 64.85-121.918 64.85-191.956 0-9.079-3.891-19.455-10.376-27.237z" class="headphone"></path></g></svg>